<svg xmlns="http://www.w3.org/2000/svg" version="1.1" xmlns:xlink="http://www.w3.org/1999/xlink" xmlns:svgjs="http://svgjs.dev/svgjs" viewBox="0 0 7.349991440747724 5.86462100308799"><g transform="matrix(1,0,0,1,3.6749940415593834,4.832198911310286)"><g transform="matrix(1,0,0,1,0,-1.1560548941937885)"><g transform="matrix(-0.0540458401827979,-0.9985384555233391,0.9985384555233391,-0.0540458401827979,0,0)"><g transform="matrix(1,0,0,1,0,1.1560548941937885)"><path d="M34 708Q59 707 101.5 706Q144 705 186 705Q234 705 279 706Q324 707 343 707Q482 707 551 652Q620 597 620 510Q620 474 606 434.5Q592 395 558.5 361.5Q525 328 467 307Q409 286 321 286L219 286L219 306L311 306Q370 306 400.5 333Q431 360 442.5 404Q454 448 454 499Q454 594 426 641Q398 688 330 688Q291 688 279.5 671Q268 654 268 602L268 112Q268 73 276 54Q284 35 307 29Q330 23 375 22L375 0Q344 1 295 2Q246 3 192 3Q149 3 108 2Q67 1 34 0L34 20Q66 22 82 28Q98 34 103.5 52Q109 70 109 106L109 602Q109 639 103.5 656.5Q98 674 81.5 680.5Q65 687 34 688Z" fill="#382d5e" transform="matrix(0.001,0,0,-0.001,-0.3205,-3.4888590385344)" fill-rule="nonzero"></path></g></g></g><g transform="matrix(1,0,0,1,0,-1.1560548941937885)"><g transform="matrix(0.20467305928525834,-0.9788303932770034,0.9788303932770034,0.20467305928525834,0,0)"><g transform="matrix(1,0,0,1,0,1.1560548941937885)"><path d="M368 710L611 84Q625 48 642.5 34.5Q660 21 674 20L674 0Q644 2 603.5 2.5Q563 3 522 3Q476 3 435 2.5Q394 2 370 0L370 20Q421 22 434.5 37.5Q448 53 428 104L258 569L276 595L124 199Q96 125 96.5 87Q97 49 121 35.5Q145 22 185 20L185 0Q152 2 122 2.5Q92 3 61 3Q39 3 19.5 2.5Q0 2 -15 0L-15 20Q6 24 28 47Q50 70 71 125L299 710Q315 709 333.5 709Q352 709 368 710ZM438 288L438 268L140 268L150 288Z" fill="#382d5e" transform="matrix(0.001,0,0,-0.001,-0.3335,-3.4888590385344)" fill-rule="nonzero"></path></g></g></g><g transform="matrix(1,0,0,1,0,-1.1560548941937885)"><g transform="matrix(0.48034999349860175,-0.8770768972820417,0.8770768972820417,0.48034999349860175,0,0)"><g transform="matrix(1,0,0,1,0,1.1560548941937885)"><path d="M671 708L671 688Q639 684 622.5 671.5Q606 659 601 632Q596 605 596 556L596 291Q596 226 587 172Q578 118 555 79Q529 36 479 11Q429 -14 352 -14Q306 -14 258 -3.5Q210 7 172 36Q140 63 123 97Q106 131 100 177.5Q94 224 94 288L94 602Q94 639 88.5 656.5Q83 674 67 680.5Q51 687 19 688L19 708Q44 707 86.5 706Q129 705 175 705Q221 705 263.5 706Q306 707 334 708L334 688Q300 687 282.5 680.5Q265 674 259 656.5Q253 639 253 602L253 225Q253 158 265 112.5Q277 67 307.5 44Q338 21 391 21Q461 21 500.5 54Q540 87 556.5 145.5Q573 204 573 280L573 544Q573 599 566 628.5Q559 658 538.5 671Q518 684 476 688L476 708Q495 707 526 706Q557 705 584 705Q608 705 631.5 706Q655 707 671 708Z" fill="#382d5e" transform="matrix(0.001,0,0,-0.001,-0.3445,-3.4888590385344)" fill-rule="nonzero"></path></g></g></g><g transform="matrix(1,0,0,1,0,-1.1560548941937885)"><g transform="matrix(0.7060997527375561,-0.7081123775107748,0.7081123775107748,0.7060997527375561,0,0)"><g transform="matrix(1,0,0,1,0,1.1560548941937885)"><path d="M349 708L349 688Q315 687 297.5 680.5Q280 674 274 656.5Q268 639 268 602L268 94Q268 63 272.5 48Q277 33 290.5 28Q304 23 331 23L380 23Q426 23 463.5 51Q501 79 526.5 129.5Q552 180 562 246L585 246Q582 212 582 158Q582 135 583 91Q584 47 589 0Q538 2 474 2.5Q410 3 360 3Q326 3 270 3Q214 3 151 2.5Q88 2 34 0L34 20Q66 22 82 28Q98 34 103.5 52Q109 70 109 106L109 602Q109 639 103.5 656.5Q98 674 81.5 680.5Q65 687 34 688L34 708Q59 707 101.5 706Q144 705 192 705Q236 705 278.5 706Q321 707 349 708Z" fill="#382d5e" transform="matrix(0.001,0,0,-0.001,-0.3055,-3.4888590385344)" fill-rule="nonzero"></path></g></g></g><g transform="matrix(1,0,0,1,0,-1.1560548941937885)"><g transform="matrix(0.8209989519286122,-0.5709296987651986,0.5709296987651986,0.8209989519286122,0,0)"><g transform="matrix(1,0,0,1,0,1.1560548941937885)"><path d="M0 0 " fill="#382d5e" transform="matrix(0.001,0,0,-0.001,-0.1165,-3.4888590385344)" fill-rule="nonzero"></path></g></g></g><g transform="matrix(1,0,0,1,0,-1.1560548941937885)"><g transform="matrix(0.9377426288452383,-0.34733091144673794,0.34733091144673794,0.9377426288452383,0,0)"><g transform="matrix(1,0,0,1,0,1.1560548941937885)"><path d="M894 708L894 688Q862 687 846 680.5Q830 674 824.5 656.5Q819 639 819 602L819 106Q819 70 824.5 52Q830 34 846 28Q862 22 894 20L894 0Q866 2 823.5 2.5Q781 3 737 3Q689 3 647 2.5Q605 2 579 0L579 20Q613 22 630.5 28Q648 34 654 52Q660 70 660 106L660 647L667 647L419 -1L403 -1L133 643L133 164Q133 109 139 79.5Q145 50 165.5 37.5Q186 25 230 20L230 0Q211 2 180 2.5Q149 3 122 3Q99 3 75 2.5Q51 2 35 0L35 20Q67 25 83 37Q99 49 104.5 76.5Q110 104 110 152L110 602Q110 639 104.5 656.5Q99 674 82.5 680.5Q66 687 35 688L35 708Q51 707 75 706Q99 705 122 705Q165 705 206.5 706Q248 707 280 708L490 201L465 178L666 705Q683 705 701 705Q719 705 737 705Q781 705 823.5 706Q866 707 894 708Z" fill="#382d5e" transform="matrix(0.001,0,0,-0.001,-0.4635,-3.4888590385344)" fill-rule="nonzero"></path></g></g></g><g transform="matrix(1,0,0,1,0,-1.1560548941937885)"><g transform="matrix(0.9974692668238305,-0.07109895738989433,0.07109895738989433,0.9974692668238305,0,0)"><g transform="matrix(1,0,0,1,0,1.1560548941937885)"><path d="M343 708L343 688Q311 687 294.5 680.5Q278 674 273 656.5Q268 639 268 602L268 106Q268 70 273.5 52Q279 34 295 28Q311 22 343 20L343 0Q316 2 275 2.5Q234 3 192 3Q143 3 101.5 2.5Q60 2 34 0L34 20Q66 22 82 28Q98 34 103.5 52Q109 70 109 106L109 602Q109 639 103.5 656.5Q98 674 81.5 680.5Q65 687 34 688L34 708Q60 707 101.5 706Q143 705 192 705Q234 705 275 706Q316 707 343 708Z" fill="#382d5e" transform="matrix(0.001,0,0,-0.001,-0.188,-3.4888590385344)" fill-rule="nonzero"></path></g></g></g><g transform="matrix(1,0,0,1,0,-1.1560548941937885)"><g transform="matrix(0.9877175620851412,0.15624985615540699,-0.15624985615540699,0.9877175620851412,0,0)"><g transform="matrix(1,0,0,1,0,1.1560548941937885)"><path d="M642 708Q638 657 636.5 610Q635 563 635 538Q635 516 636 496Q637 476 638 462L615 462Q599 546 574.5 595Q550 644 516 664.5Q482 685 436 685L413 685L413 114Q413 74 421.5 54Q430 34 453 27.5Q476 21 520 20L520 0Q489 1 437.5 2Q386 3 330 3Q275 3 226 2Q177 1 147 0L147 20Q192 21 215 27.5Q238 34 246 54Q254 74 254 114L254 685L232 685Q186 685 152 664.5Q118 644 94 595.5Q70 547 52 462L29 462Q31 476 31.5 496Q32 516 32 538Q32 563 30.5 610Q29 657 25 708Q71 707 125.5 706Q180 705 235 705Q290 705 334 705Q379 705 433.5 705Q488 705 543 706Q598 707 642 708Z" fill="#382d5e" transform="matrix(0.001,0,0,-0.001,-0.334,-3.4888590385344)" fill-rule="nonzero"></path></g></g></g><g transform="matrix(1,0,0,1,0,-1.1560548941937885)"><g transform="matrix(0.8980585873200198,0.4398758617391621,-0.4398758617391621,0.8980585873200198,0,0)"><g transform="matrix(1,0,0,1,0,1.1560548941937885)"><path d="M397 722Q463 722 505.5 702.5Q548 683 581 657Q601 642 611.5 653.5Q622 665 626 708L649 708Q647 669 646 613.5Q645 558 645 466L622 466Q617 512 609 544.5Q601 577 587 602Q573 627 547 647Q522 672 489 684Q456 696 420 696Q366 696 328 667.5Q290 639 266.5 590Q243 541 232 479.5Q221 418 221 352Q221 285 232.5 223.5Q244 162 268.5 114Q293 66 332 38Q371 10 424 10Q457 10 490.5 22.5Q524 35 548 59Q587 89 601 133.5Q615 178 622 252L645 252Q645 157 646 98.5Q647 40 649 0L626 0Q622 43 612.5 54Q603 65 581 51Q544 25 502.5 5.5Q461 -14 396 -14Q290 -14 210.5 29Q131 72 87 153Q43 234 43 348Q43 460 88.5 544Q134 628 213.5 675Q293 722 397 722Z" fill="#382d5e" transform="matrix(0.001,0,0,-0.001,-0.3525,-3.4888590385344)" fill-rule="nonzero"></path></g></g></g><g transform="matrix(1,0,0,1,0,-1.1560548941937885)"><g transform="matrix(0.7092798180311257,0.7049270456818444,-0.7049270456818444,0.7092798180311257,0,0)"><g transform="matrix(1,0,0,1,0,1.1560548941937885)"><path d="M458 0L458 20Q490 22 506 28Q522 34 527.5 52Q533 70 533 106L533 602Q533 639 527.5 656.5Q522 674 505.5 680.5Q489 687 458 688L458 708Q485 707 528.5 706Q572 705 615 705Q661 705 701.5 706Q742 707 767 708L767 688Q735 687 718.5 680.5Q702 674 697 656.5Q692 639 692 602L692 106Q692 70 697.5 52Q703 34 719 28Q735 22 767 20L767 0Q742 2 701.5 2.5Q661 3 615 3Q572 3 528.5 2.5Q485 2 458 0ZM34 0L34 20Q66 22 82 28Q98 34 103.5 52Q109 70 109 106L109 602Q109 639 103.5 656.5Q98 674 81.5 680.5Q65 687 34 688L34 708Q60 707 101.5 706Q143 705 192 705Q234 705 275 706Q316 707 343 708L343 688Q311 687 294.5 680.5Q278 674 273 656.5Q268 639 268 602L268 106Q268 70 273.5 52Q279 34 295 28Q311 22 343 20L343 0Q316 2 275 2.5Q234 3 192 3Q143 3 101.5 2.5Q60 2 34 0ZM203 346L203 366L598 366L598 346Z" fill="#382d5e" transform="matrix(0.001,0,0,-0.001,-0.4,-3.4888590385344)" fill-rule="nonzero"></path></g></g></g><g transform="matrix(1,0,0,1,0,-1.1560548941937885)"><g transform="matrix(0.4589685827324291,0.8884524973596424,-0.8884524973596424,0.4589685827324291,0,0)"><g transform="matrix(1,0,0,1,0,1.1560548941937885)"><path d="M569 708Q565 664 563.5 623Q562 582 562 560Q562 540 563 522Q564 504 565 492L542 492Q532 565 511 607.5Q490 650 456.5 667.5Q423 685 378 685L337 685Q307 685 292.5 680Q278 675 273 660.5Q268 646 268 614L268 94Q268 63 273 48Q278 33 292.5 28Q307 23 337 23L386 23Q431 23 465.5 42.5Q500 62 524.5 109Q549 156 562 236L585 236Q582 204 582 152Q582 129 583 87Q584 45 589 0Q538 2 474 2.5Q410 3 360 3Q326 3 270 3Q214 3 151 2.5Q88 2 34 0L34 20Q66 22 82 28Q98 34 103.5 52Q109 70 109 106L109 602Q109 639 103.5 656.5Q98 674 81.5 680.5Q65 687 34 688L34 708Q88 707 151 706Q214 705 270 705Q326 705 360 705Q406 705 464.5 705.5Q523 706 569 708ZM413 366Q413 366 413 356Q413 346 413 346L238 346Q238 346 238 356Q238 366 238 366ZM442 498Q438 441 438.5 411Q439 381 439 356Q439 331 440 301Q441 271 445 214L422 214Q417 249 403.5 279Q390 309 365 327.5Q340 346 300 346L300 366Q340 366 364 388Q388 410 401 440.5Q414 471 419 498Z" fill="#382d5e" transform="matrix(0.001,0,0,-0.001,-0.317,-3.4888590385344)" fill-rule="nonzero"></path></g></g></g><g transform="matrix(1,0,0,1,0,-1.1560548941937885)"><g transform="matrix(0.2042534465911812,0.9789180402646708,-0.9789180402646708,0.2042534465911812,0,0)"><g transform="matrix(1,0,0,1,0,1.1560548941937885)"><path d="M349 708L349 688Q315 687 297.5 680.5Q280 674 274 656.5Q268 639 268 602L268 94Q268 63 272.5 48Q277 33 290.5 28Q304 23 331 23L380 23Q426 23 463.5 51Q501 79 526.5 129.5Q552 180 562 246L585 246Q582 212 582 158Q582 135 583 91Q584 47 589 0Q538 2 474 2.5Q410 3 360 3Q326 3 270 3Q214 3 151 2.5Q88 2 34 0L34 20Q66 22 82 28Q98 34 103.5 52Q109 70 109 106L109 602Q109 639 103.5 656.5Q98 674 81.5 680.5Q65 687 34 688L34 708Q59 707 101.5 706Q144 705 192 705Q236 705 278.5 706Q321 707 349 708Z" fill="#382d5e" transform="matrix(0.001,0,0,-0.001,-0.3055,-3.4888590385344)" fill-rule="nonzero"></path></g></g></g><g transform="matrix(1,0,0,1,0,-1.1560548941937885)"><g transform="matrix(-0.06046531062721771,0.9981702992028735,-0.9981702992028735,-0.06046531062721771,0,0)"><g transform="matrix(1,0,0,1,0,1.1560548941937885)"><path d="M349 708L349 688Q315 687 297.5 680.5Q280 674 274 656.5Q268 639 268 602L268 94Q268 63 272.5 48Q277 33 290.5 28Q304 23 331 23L380 23Q426 23 463.5 51Q501 79 526.5 129.5Q552 180 562 246L585 246Q582 212 582 158Q582 135 583 91Q584 47 589 0Q538 2 474 2.5Q410 3 360 3Q326 3 270 3Q214 3 151 2.5Q88 2 34 0L34 20Q66 22 82 28Q98 34 103.5 52Q109 70 109 106L109 602Q109 639 103.5 656.5Q98 674 81.5 680.5Q65 687 34 688L34 708Q59 707 101.5 706Q144 705 192 705Q236 705 278.5 706Q321 707 349 708Z" fill="#382d5e" transform="matrix(0.001,0,0,-0.001,-0.3055,-3.4888590385344)" fill-rule="nonzero"></path></g></g></g><path d="M297 708L297 688Q263 687 245.5 680.5Q228 674 222 656.5Q216 639 216 602L216 106Q216 70 222 52Q228 34 245.5 28.5Q263 23 297 23L370 23Q417 23 446.5 33Q476 43 493.5 64.5Q511 86 520 122Q529 158 534 210L557 210Q554 179 554 128Q554 109 555.5 73.5Q557 38 561 0Q510 2 446 2.5Q382 3 332 3Q310 3 275.5 3Q241 3 201 2.5Q161 2 120 1.5Q79 1 42 0L42 20Q76 22 93.5 28Q111 34 117 52Q123 70 123 106L123 602Q123 639 117 656.5Q111 674 93.5 680.5Q76 687 42 688L42 708Q63 707 97 706Q131 705 170 705Q205 705 239.5 706Q274 707 297 708Z" fill="#c84449" transform="matrix(0.0005,0,0,-0.0005,-1.41575,0.392)" fill-rule="nonzero"></path><path d="M323 713L567 84Q582 46 601 33.5Q620 21 636 20L636 0Q616 2 587 2.5Q558 3 529 3Q490 3 456 2.5Q422 2 401 0L401 20Q452 22 466 37.5Q480 53 460 104L274 601L290 614L116 162Q100 122 97 94.5Q94 67 102.5 51Q111 35 131.5 28Q152 21 183 20L183 0Q155 2 124.5 2.5Q94 3 68 3Q43 3 25.5 2.5Q8 2 -7 0L-7 20Q13 25 34 43.5Q55 62 72 107L307 713Q311 713 315 713Q319 713 323 713ZM445 288L445 268L147 268L157 288Z" fill="#c84449" transform="matrix(0.0005,0,0,-0.0005,-1.1167500000000001,0.392)" fill-rule="nonzero"></path><path d="M907 708L907 688Q888 684 865 665.5Q842 647 828 601L639 -5Q637 -5 635 -5Q633 -5 631 -5Q629 -5 627 -5Q625 -5 623 -5L411 624Q398 663 382 675Q366 687 352 688L352 708Q370 707 397 706Q424 705 449 705Q488 705 522 706Q556 707 577 708L577 688Q547 687 529.5 682Q512 677 509.5 660Q507 643 519 604L668 143L654 131L786 546Q804 601 802.5 631.5Q801 662 780 674.5Q759 687 717 688L717 708Q746 707 776 706Q806 705 832 705Q858 705 875 706Q892 707 907 708ZM208 708L208 688Q182 686 170.5 678Q159 670 159.5 652.5Q160 635 170 604L325 131L300 106L440 553L455 529L290 -5Q288 -5 286 -5Q284 -5 282 -5Q280 -5 278 -5Q276 -5 274 -5L62 624Q49 663 29 675Q9 687 -7 688L-7 708Q13 707 42.5 706Q72 705 100 705Q133 705 161.5 706Q190 707 208 708Z" fill="#c84449" transform="matrix(0.0005,0,0,-0.0005,-0.8217500000000002,0.392)" fill-rule="nonzero"></path><path d="M670 708L670 688Q636 687 618.5 678Q601 669 595 649Q589 629 589 592L589 -5Q583 -5 577.5 -5Q572 -5 566 -5L146 644L146 116Q146 80 152.5 59.5Q159 39 178.5 30.5Q198 22 237 20L237 0Q219 2 190 2.5Q161 3 135 3Q110 3 84.5 2.5Q59 2 42 0L42 20Q76 22 93.5 30.5Q111 39 117 59.5Q123 80 123 116L123 602Q123 639 117 656.5Q111 674 93.5 680.5Q76 687 42 688L42 708Q59 707 84.5 706Q110 705 135 705Q157 705 177 706Q197 707 213 708L566 164L566 592Q566 629 559.5 649Q553 669 533.5 678Q514 687 475 688L475 708Q493 707 522.5 706Q552 705 577 705Q603 705 628.5 706Q654 707 670 708Z" fill="#c84449" transform="matrix(0.0005,0,0,-0.0005,-0.3642500000000002,0.392)" fill-rule="nonzero"></path><path d="M0 0 " fill="#c84449" transform="matrix(0.0005,0,0,-0.0005,-0.0062500000000002,0.392)" fill-rule="nonzero"></path><path d="M371 722Q437 722 479.5 702.5Q522 683 555 657Q575 642 585.5 653.5Q596 665 600 708L623 708Q621 671 620 618Q619 565 619 478L596 478Q589 521 583 546.5Q577 572 568.5 590Q560 608 546 626Q515 667 468 685.5Q421 704 369 704Q320 704 280.5 679.5Q241 655 212.5 609Q184 563 168.5 498Q153 433 153 352Q153 268 170 203.5Q187 139 217.5 95Q248 51 289.5 28.5Q331 6 379 6Q424 6 473 24Q522 42 550 82Q572 111 580.5 145Q589 179 596 240L619 240Q619 149 620 93.5Q621 38 623 0L600 0Q596 43 586.5 54Q577 65 555 51Q518 25 476.5 5.5Q435 -14 370 -14Q275 -14 203.5 29Q132 72 92.5 153Q53 234 53 348Q53 460 94 544Q135 628 206.5 675Q278 722 371 722Z" fill="#c84449" transform="matrix(0.0005,0,0,-0.0005,0.1232499999999998,0.392)" fill-rule="nonzero"></path><path d="M323 713L567 84Q582 46 601 33.5Q620 21 636 20L636 0Q616 2 587 2.5Q558 3 529 3Q490 3 456 2.5Q422 2 401 0L401 20Q452 22 466 37.5Q480 53 460 104L274 601L290 614L116 162Q100 122 97 94.5Q94 67 102.5 51Q111 35 131.5 28Q152 21 183 20L183 0Q155 2 124.5 2.5Q94 3 68 3Q43 3 25.5 2.5Q8 2 -7 0L-7 20Q13 25 34 43.5Q55 62 72 107L307 713Q311 713 315 713Q319 713 323 713ZM445 288L445 268L147 268L157 288Z" fill="#c84449" transform="matrix(0.0005,0,0,-0.0005,0.4722499999999998,0.392)" fill-rule="nonzero"></path><path d="M42 708Q63 707 97 706Q131 705 164 705Q211 705 254 706Q297 707 315 707Q396 707 449.5 684Q503 661 529.5 621.5Q556 582 556 533Q556 503 544 469Q532 435 502.5 405Q473 375 422 355.5Q371 336 293 336L197 336L197 356L283 356Q354 356 391.5 378.5Q429 401 442.5 438.5Q456 476 456 522Q456 601 418.5 644.5Q381 688 290 688Q244 688 230 671Q216 654 216 602L216 106Q216 70 222 52Q228 34 245.5 28Q263 22 297 20L297 0Q274 2 239.5 2.5Q205 3 170 3Q131 3 97 2.5Q63 2 42 0L42 20Q76 22 93.5 28Q111 34 117 52Q123 70 123 106L123 602Q123 639 117 656.5Q111 674 93.5 680.5Q76 687 42 688ZM201 353Q255 351 286 348.5Q317 346 336.5 344Q356 342 374 339Q441 328 470.5 298.5Q500 269 514 207L539 105Q549 61 559.5 41.5Q570 22 592 23Q609 24 620.5 34Q632 44 645 61L660 50Q639 19 616.5 2.5Q594 -14 553 -14Q516 -14 488 8Q460 30 446 94L424 194Q415 237 403.5 268.5Q392 300 371.5 318Q351 336 311 336L203 336Z" fill="#c84449" transform="matrix(0.0005,0,0,-0.0005,0.7822499999999998,0.392)" fill-rule="nonzero"></path><path d="M541 708Q537 673 535.5 640Q534 607 534 590Q534 572 535 555.5Q536 539 537 528L514 528Q508 587 497 621.5Q486 656 459.5 670.5Q433 685 380 685L297 685Q263 685 245.5 679.5Q228 674 222 656.5Q216 639 216 602L216 106Q216 70 222 52Q228 34 245.5 28.5Q263 23 297 23L370 23Q433 23 465.5 40Q498 57 512.5 95.5Q527 134 534 200L557 200Q554 173 554 128Q554 109 555.5 73.5Q557 38 561 0Q510 2 446 2.5Q382 3 332 3Q310 3 275.5 3Q241 3 201 2.5Q161 2 120 1.5Q79 1 42 0L42 20Q76 22 93.5 28Q111 34 117 52Q123 70 123 106L123 602Q123 639 117 656.5Q111 674 93.5 680.5Q76 687 42 688L42 708Q79 707 120 706.5Q161 706 201 705.5Q241 705 275.5 705Q310 705 332 705Q378 705 436.5 705.5Q495 706 541 708ZM369 366Q369 366 369 356Q369 346 369 346L186 346Q186 346 186 356Q186 366 186 366ZM398 498Q394 441 394.5 411Q395 381 395 356Q395 331 396 301Q397 271 401 214L378 214Q374 246 368.5 276.5Q363 307 344.5 326.5Q326 346 282 346L282 366Q315 366 332.5 379.5Q350 393 358 414Q366 435 369 457.5Q372 480 375 498Z" fill="#c84449" transform="matrix(0.0005,0,0,-0.0005,1.1112499999999998,0.392)" fill-rule="nonzero"></path><g clip-path="url(&quot;#SvgjsClipPath1000&quot;)"><path d=" M 0.022016984143068186 -2.124609788387577 C -0.6626400666178078 -2.1245769758504593 -1.2285856152303793 -1.5908354970441536 -1.2686840450778654 -0.9073536800533866 C -1.2654680811019077 -0.90839818117378 -1.262197143382771 -0.9093877085509945 -1.2589811794068204 -0.9104871834145705 C -1.1719302570833605 -0.9404478734469599 -1.0894421554437344 -0.9850315791648789 -0.9998624409340557 -1.005234429783048 C -1.0097753442095119 -1.0062490091218805 -1.0194576643909699 -1.0088668559974039 -1.028531248001741 -1.0129857275712482 C -1.045364366438406 -1.0225065675609208 -1.0598700914795103 -1.0356509138764771 -1.0709984646072819 -1.0514673477963292 C -1.0940874367423312 -1.0801086679924268 -1.1172038957489754 -1.1144397706075218 -1.1107719677970636 -1.150667467362279 L -1.1145926429479793 -1.2331280821303174 L -0.9858716232950719 -1.2006111130401216 C -0.9761537396356346 -1.1984217102160422 -0.9666230680044912 -1.195471521601192 -0.9573677374569272 -1.1917878272599367 C -0.9447523528089192 -1.1857248936663538 -0.9327179480439867 -1.1785208119148685 -0.9214149094180542 -1.1702656068054829 C -0.7816903363567143 -1.6385603021112551 -0.31956532441768815 -1.9334481924485196 0.16400909320568857 -1.8628885680949523 C 0.6475835108290582 -1.7923289437413885 1.0061792206789377 -1.3776875186468018 1.0062668820143799 -0.8889924498317079 C 1.0062668820143799 -0.864913950319437 1.0053048415087495 -0.8410278589082942 1.0035181948554452 -0.8173616624698674 C 1.041760198511426 -0.8267895855169449 1.0793947722748705 -0.8385297366982734 1.116214368371768 -0.8525173712326435 C 1.1812483065521562 -0.877255555663055 1.2448529274099052 -0.9095526297805385 1.3113711566561186 -0.9277214519010926 C 1.2610460493152402 -1.6026327572487737 0.6988019452495351 -2.124555611931065 0.022016984143068186 -2.124609788387577 Z M 0.2816029994328524 -0.8502909346339038 C 0.4850058491940139 -0.7938054135177985 0.702152134749845 -0.7667033581306981 0.9089633565880888 -0.7983957210732164 C 0.6870008036519266 -0.8321254482180862 0.4633334557949702 -0.8534791004074371 0.23899834846935875 -0.862357671261627 C 0.2532365479526497 -0.8583171011379918 0.2674197736927475 -0.8542215572711811 0.2816029994328524 -0.8502909346339038 Z" fill="#e37f7c" transform="matrix(1,0,0,1,0,0)" fill-rule="nonzero"></path><path d=" M -0.8098456976369057 -0.8327817974314904 C -0.8009166067493929 -0.776439408472072 -0.7858370024995232 -0.7212458447506656 -0.7648771757167374 -0.6681904103544838 L -0.3594458197738817 -0.6764364718312876 C -0.47670481397403464 -0.724895826443305 -0.5985816026011932 -0.7618106949877941 -0.7198261931818024 -0.799797551524275 C -0.7505540662274974 -0.808713495993473 -0.7806316761889569 -0.8197342996434713 -0.8098456976369128 -0.8327817974314904 Z M -0.778153334694391 -1.0217540396082434 C -0.7226298540839124 -1.0172461926675922 -0.6673812421893253 -1.010246202702838 -0.612407499010633 -1.0007540697139845 C -0.6433156318029347 -1.0108421081159271 -0.6734400252850108 -1.0231895264873536 -0.7025369509520978 -1.0376964251300649 C -0.7237627124398891 -1.0458746648733452 -0.7429262272950297 -1.0586284438587192 -0.7586651427375415 -1.0750510836199894 C -0.7869491336029775 -1.1093821862350843 -0.7806546400090184 -1.1595457268856393 -0.7727384209912849 -1.2033323133274685 C -0.7704020369061908 -1.2163610904608184 -0.7678457578483773 -1.2297197100532422 -0.7647122544871969 -1.2429408952877168 C -0.7930118928787202 -1.1715956256010465 -0.8106104283462408 -1.0964591415418212 -0.8169373105069582 -1.0199673929549427 C -0.8042152502487276 -1.0228501777265784 -0.7910792166336265 -1.0234273811880463 -0.778153334694391 -1.0216715789934732 Z M 0.024463315714516654 -1.7654388373295937 C -0.28541505888272667 -1.7680330667878899 -0.5720853780035284 -1.6015664181749827 -0.7234269733599952 -1.331146266217928 C -0.7185731528290411 -1.3364022900973538 -0.7132252605148892 -1.341179495107756 -0.7074571009666002 -1.345411952572796 C -0.6720387171914197 -1.3681550967881577 -0.6283627644380161 -1.3740335840912223 -0.5881915651404235 -1.3614642855809755 C -0.513344813802636 -1.34150881680711 -0.3951512659684475 -1.285573033122791 -0.364365969788377 -1.2102864918395717 C -0.3403424440192886 -1.151437099766781 -0.35196939070157995 -1.0818953146457346 -0.3242351372679302 -1.0246951348683062 C -0.28382943603159205 -0.9414923745673534 -0.1766031499615508 -0.9157646627597309 -0.08427474829293757 -0.9211246027196509 C 0.008053653375672098 -0.9264845426795709 0.101151687448791 -0.9528444525337569 0.19169344246409636 -0.9339884586234639 C 0.21942769589774613 -0.9282162155896998 0.2524669155481405 -0.9066939951352424 0.2432863004372976 -0.8799217822072194 C 0.23611222695247847 -0.8590592466709062 0.20931252715286064 -0.854853755317734 0.187927741056356 -0.8494663284862263 C 0.12202029530857317 -0.8280780455354986 0.07082801709514897 -0.7756732645462421 0.050988146798236045 -0.7092832833805609 C 0.048129512152939924 -0.7010738710658728 0.04560071996672477 -0.6927728358458936 0.04340177023957281 -0.6843801777206124 L 0.11690166486948428 -0.6858644687864377 L 0.8283168753449424 -0.7078539660579146 C 0.8549389891389367 -0.7876135809492943 0.8684998223395368 -0.8711505411172737 0.8684751947369769 -0.9552358103620264 C 0.8685301684801594 -1.4027495667081702 0.4906406578698288 -1.7654388373295902 0.02451828945769563 -1.7654388373295902 Z M -0.43305566189014755 -1.0366794108812591 C -0.46364951821145084 -1.0031698122655754 -0.508146087412161 -0.9858836679234351 -0.5533382119651264 -0.9899517291793707 C -0.5329550429901744 -0.9853136847057762 -0.511903439406705 -0.984382609801596 -0.491190395301615 -0.9872030420204361 C -0.4636951855328064 -0.9906618303466495 -0.44086601286304017 -1.0100909134698561 -0.43305566189014044 -1.0366794108812591 Z" fill="#e37f7c" transform="matrix(1,0,0,1,0,0)" fill-rule="nonzero"></path><path d=" M -1.0276516681108825 -1.0058116540864226 C -1.0276516681108825 -0.89567653618651 -1.116933803591676 -0.8063944007057167 -1.2270689214915884 -0.8063944007057167 C -1.337204039391501 -0.8063944007057167 -1.4264861748722946 -0.89567653618651 -1.4264861748722946 -1.0058116540864226 C -1.4264861748722946 -1.1159467719863352 -1.337204039391501 -1.2052289074671285 -1.2270689214915884 -1.2052289074671285 C -1.116933803591676 -1.2052289074671285 -1.0276516681108825 -1.1159467719863352 -1.0276516681108825 -1.0058116540864226 Z" fill="#efe0e2" transform="matrix(1,0,0,1,0,0)" fill-rule="nonzero"></path><path d=" M 0.5910501997857094 -0.552195812247444 C 0.5910501997857094 -0.4193960863496584 0.4833947730198953 -0.3117406595838441 0.35059504712210954 -0.3117406595838441 C 0.21779532122432377 -0.3117406595838441 0.11013989445850969 -0.4193960863496584 0.11013989445850969 -0.552195812247444 C 0.11013989445850969 -0.6849955381452295 0.21779532122432377 -0.7926509649110436 0.35059504712210954 -0.7926509649110436 C 0.4833947730198953 -0.7926509649110436 0.5910501997857094 -0.6849955381452295 0.5910501997857094 -0.552195812247444 Z" fill="#efe0e2" transform="matrix(1,0,0,1,0,0)" fill-rule="nonzero"></path><path d=" M 0.009730352542625553 -0.5073372378136298 C -0.025236563254800615 -0.5319921046691327 -0.06384622053887057 -0.5510233361721149 -0.10469749388382255 -0.563740298314972 C -0.1302877713335029 -0.5731682952701149 -0.1670102317768709 -0.5825962922252614 -0.2063989187644033 -0.5936185277325876 C -1.0870782844870526 -0.5786656695879842 -1.5803851689010493 -0.46168154410372964 -1.5803851689010493 -0.46168154410372964 L 0.0476622353359204 -0.470394882397553 C 0.036147337256451806 -0.4838175048747573 0.023452592466764344 -0.4961810824090591 0.009730352542632659 -0.5073372378136298 Z M 1.6590800822613438 -0.4791357075629641 C 1.2646434749542301 -0.5648947469217234 0.9374122686830582 -0.6151132613154573 0.6214506797635266 -0.6323475298019758 C 0.6273566683139684 -0.5793701869383092 0.6249640454968315 -0.5257958380445054 0.6143590668934742 -0.4735558726303246 Z" fill="#e37f7c" transform="matrix(1,0,0,1,0,0)" fill-rule="nonzero"></path><path d=" M -1.104834803533766 -0.811259576977033 C -1.1139225689214243 -0.8045860098980953 -1.1234449614829813 -0.7985254707557345 -1.1333386893719215 -0.7931182417280667 C -1.1711126627141297 -0.7743342377795663 -1.214423414952055 -0.7699093909677082 -1.25521547799908 -0.7806666888980907 C -1.630466248936834 -0.6976288498266783 -1.9329042970344084 -0.5792703807629529 -2.122233868541823 -0.43927974375841217 C -1.6659518001586768 -0.5486774926840106 -1.082542950674803 -0.6244587976558371 -0.4339627286525918 -0.6511485499690934 C -0.6014677241180699 -0.7090359015362537 -0.7670303139912313 -0.7722098947391025 -0.930650498272076 -0.8406705295776327 C -0.9900221409050651 -0.8316548356963267 -1.0480835759922975 -0.821851184829459 -1.104834803533766 -0.811259576977033 Z M 0.1262197143382764 -0.7255280244898614 C 0.10712944135260827 -0.707118602287693 0.09138344939722032 -0.6855318052832864 0.07968444073751613 -0.6617309955309842 L 0.08919489830742933 -0.6617309955309842 C 0.09777659112025816 -0.6705489867059846 0.10709144211573474 -0.6786224705895307 0.1170390992274335 -0.6858644687864377 C 0.17476152956505686 -0.7275345661158816 0.24532032893490907 -0.7457308751080305 0.3108490308039116 -0.7732452335689644 C 0.3202770277590581 -0.7772033430778293 0.32973251158578876 -0.7812714000730558 0.3392704560272968 -0.7851470489671506 C 0.262784916540582 -0.8010736718461864 0.18333004047917711 -0.7788394277257886 0.12621971433826928 -0.7255280244898614 Z M 1.271267811007256 -0.7891326453476069 C 1.2681617945176562 -0.787455946180657 1.2651107517712425 -0.7856967863989368 1.2619222746668797 -0.7841300347183449 C 1.1187981343011515 -0.7150280395427302 0.9453010008292004 -0.7777255936380278 0.7911546249561496 -0.7390240784402273 C 0.7187542051898106 -0.720882743191261 0.6491024725824133 -0.680202173239028 0.5748604324195874 -0.6880359316419913 C 0.5631581514120221 -0.6893422243835268 0.5516013397212234 -0.6917253567305934 0.5403369217033713 -0.6951550313836314 C 0.5461800464955893 -0.6815193173143861 0.5508603077234575 -0.6674141685451396 0.5543277393423445 -0.6529901703655767 C 1.1443059511360687 -0.6310006730940998 1.6823339756259266 -0.5687978826874094 2.122233868541823 -0.47732157403806497 C 1.924493314328064 -0.6054103956444195 1.6296141559175616 -0.7131864191462469 1.2712678110072595 -0.7891326453476069 Z" fill="#e37f7c" transform="matrix(1,0,0,1,0,0)" fill-rule="nonzero"></path><path d=" M 1.1784721325216232 -0.6654692100671404 C 1.1592313224090773 -0.6654692100671404 1.138643655588659 -0.6664862243159462 1.1166816451887698 -0.6686576871715033 C 1.1037326104493168 -0.6699404461814495 1.0942752253624128 -0.681477594547065 1.0955579843723555 -0.694426629286518 C 1.0968407433823053 -0.7073756640259674 1.1083778917479208 -0.7168330491128749 1.1213269264873738 -0.7155502901029251 C 1.2370466558785225 -0.704060777778583 1.3255543823962164 -0.7263801175091302 1.377257187855772 -0.7800344908515342 C 1.3990586277729413 -0.8020797884807287 1.4139433985181036 -0.8300150064902674 1.4200817337919744 -0.8604061033787822 L 1.4398997682078907 -1.0488286081237526 C 1.4415584396816818 -1.0615171841569584 1.4530332419421228 -1.0705679699986028 1.465759132376899 -1.0692252617464 C 1.4784850228116824 -1.0678825534941936 1.4878182861555906 -1.0566363093824584 1.4867923711393196 -1.0438809712376695 L 1.4669193629802173 -0.8551561109052201 C 1.4666444942643295 -0.8528472136917102 1.4411091905578246 -0.6654692100671404 1.1784721325216232 -0.6654692100671404 Z" fill="#efe0e2" transform="matrix(1,0,0,1,0,0)" fill-rule="nonzero"></path><path d=" M 1.9011294734771234 -1.9492985213907303 C 1.890134724841385 -1.9533665783859533 1.7959372159046971 -1.981842977352514 1.6070199474711195 -1.8605159261571416 C 1.6015225731532503 -1.8566952510062222 1.5850304501996462 -1.845673015498896 1.5597975020806238 -1.8287960763430355 L 1.9279016864051464 -1.779567089326516 C 1.9522550546333086 -1.7971586871436962 1.98210579717934 -1.8252502699080075 1.9830953245565546 -1.8537816426177507 C 1.9761652807272831 -1.8986192606563037 1.9443952566319531 -1.9356416730410402 1.9011294734771234 -1.9492985213907303 Z" fill="#382d5e" transform="matrix(1,0,0,1,0,0)" fill-rule="nonzero"></path><path d=" M 0.40254523442597545 -0.7206628482185451 C 0.31502105623765786 -0.7532759849453754 0.21763016626783482 -0.7087645045522848 0.18501275425219532 -0.621241919535013 C 0.15239534223655582 -0.5337193345177376 0.19690206528570187 -0.43632627039443506 0.28442305692309233 -0.40370458316781566 C 0.3719440485604828 -0.3710828959411927 0.4693392866048747 -0.41558486154019647 0.5019652489646411 -0.5031042595888735 C 0.5344973430627924 -0.590632191987897 0.4900144292612829 -0.6879731548684518 0.40254523442597545 -0.7206628482185451 Z" fill="#382d5e" transform="matrix(1,0,0,1,0,0)" fill-rule="nonzero"></path><path d=" M -1.178279724420502 -1.128210693273779 C -1.2461872951803237 -1.1535204291248853 -1.3217549911123108 -1.1189891217548826 -1.3470663979970574 -1.0510821738270941 C -1.372377804881797 -0.9831752258993021 -1.3378483570607322 -0.9076066802581195 -1.2699420320060923 -0.882293602355066 C -1.202035706951449 -0.8569805244520126 -1.1264663116468334 -0.8915081127032316 -1.101151562740796 -0.9594138148436073 C -1.0759170105030655 -1.0273212797041111 -1.1104233141794637 -1.102839173815557 -1.178279724420502 -1.1282106932737754 Z" fill="#382d5e" transform="matrix(1,0,0,1,0,0)" fill-rule="nonzero"></path><path d=" M 1.7782631574727468 -0.2688611399044625 C 1.7571166095336501 -0.2688611399044625 1.7399739453487904 -0.2517184757196027 1.7399739453487904 -0.2305719277805025 C 1.7399739453487904 -0.20942537984140586 1.7571166095336501 -0.19228271565654254 1.7782631574727468 -0.19228271565654254 C 1.7994097054118434 -0.19228271565654254 1.8165523695967103 -0.20942537984140586 1.8165523695967103 -0.2305719277805025 C 1.8165523695967103 -0.24072685821873918 1.8125183391872461 -0.25046586914428914 1.8053377190118916 -0.2576464893196473 C 1.7981570988365299 -0.2648271094950019 1.78841808791098 -0.2688611399044625 1.7782631574727468 -0.2688611399044625 Z" fill="#c84449" transform="matrix(1,0,0,1,0,0)" fill-rule="nonzero"></path><path d=" M -1.6364309000717192 -1.0096323292373413 C -1.6575774480108159 -1.0096323292373413 -1.6747201121956792 -0.9924896650524815 -1.6747201121956792 -0.9713431171133813 C -1.6747201121956792 -0.9501965691742846 -1.6575774480108159 -0.9330539049894213 -1.6364309000717192 -0.9330539049894213 C -1.615284352132619 -0.9330539049894213 -1.5981416879477592 -0.9501965691742846 -1.5981416879477592 -0.9713431171133813 C -1.5981416879477592 -0.981498047551618 -1.6021757183572234 -0.9912370584771679 -1.6093563385325744 -0.9984176786525261 C -1.6165369587079361 -1.0055982988278807 -1.626275969633486 -1.0096323292373413 -1.6364309000717192 -1.0096323292373413 Z" fill="#c84449" transform="matrix(1,0,0,1,0,0)" fill-rule="nonzero"></path><path d=" M 1.1790493568250042 -0.363251056942282 C 1.1790493568250042 -0.3421045090031818 1.196192021009864 -0.324961844818322 1.2173385689489642 -0.324961844818322 C 1.2384851168880608 -0.324961844818322 1.2556277810729242 -0.3421045090031818 1.2556277810729242 -0.363251056942282 C 1.2556277810729242 -0.38439760488137864 1.2384851168880608 -0.4015402690662384 1.2173385689489642 -0.4015402690662384 C 1.207183638510724 -0.4015402690662384 1.197444627585174 -0.3975062386567778 1.1902640074098194 -0.3903256184814232 C 1.1830833872344684 -0.3831449983060651 1.1790493568250042 -0.37340598738051867 1.1790493568250042 -0.363251056942282 Z" fill="#c84449" transform="matrix(1,0,0,1,0,0)" fill-rule="nonzero"></path><path d=" M 1.5341797377593522 -0.2688611399044625 C 1.513033189820252 -0.2688611399044625 1.4958905256353923 -0.2517184757196027 1.4958905256353923 -0.2305719277805025 C 1.4958905256353923 -0.20942537984140586 1.513033189820252 -0.19228271565654254 1.5341797377593522 -0.19228271565654254 C 1.5553262856984489 -0.19228271565654254 1.5724689498833122 -0.20942537984140586 1.5724689498833122 -0.2305719277805025 C 1.5724689498833122 -0.24072685821873918 1.568434919473848 -0.25046586914428914 1.5612542992984935 -0.2576464893196473 C 1.5540736791231318 -0.2648271094950019 1.5443346681975854 -0.2688611399044625 1.5341797377593522 -0.2688611399044625 Z" fill="#c84449" transform="matrix(1,0,0,1,0,0)" fill-rule="nonzero"></path><path d=" M -1.1225363488373077 -1.2778217353345909 C -1.2730796801420183 -1.3339073783822961 -1.4405860655917344 -1.2573381711635 -1.4966778188215777 -1.1067971163777806 C -1.552769572051421 -0.956256061592061 -1.476207163617719 -0.7887465685017396 -1.3256683855989877 -0.7326487051821644 C -1.17512960758026 -0.6765508418625927 -1.0076170071252868 -0.7531064513850723 -0.9515130338083964 -0.9036429523888216 C -0.8955993057016194 -1.0541895995289465 -0.9721098395077696 -1.2215855970704403 -1.1225363488373006 -1.2778217353345909 Z M -1.101151562740796 -0.9594138148436073 C -1.1264663116468334 -0.8915081127032316 -1.202035706951449 -0.8569805244520126 -1.2699420320060923 -0.882293602355066 C -1.3378483570607322 -0.9076066802581195 -1.372377804881797 -0.9831752258993021 -1.3470663979970574 -1.0510821738270941 C -1.3217549911123108 -1.1189891217548826 -1.2461872951803237 -1.1535204291248853 -1.178279724420502 -1.128210693273779 C -1.1104233141794637 -1.102839173815557 -1.0759170105030655 -1.0273212797041111 -1.101151562740796 -0.9594138148436038 Z" fill="#c84449" transform="matrix(1,0,0,1,0,0)" fill-rule="nonzero"></path><path d=" M -1.168741779978996 -1.004162441791062 C -1.168741779978996 -0.9741807935688251 -1.193046703145718 -0.9498758704021033 -1.2230283513679547 -0.9498758704021033 C -1.2530099995901913 -0.9498758704021033 -1.2773149227569132 -0.9741807935688251 -1.2773149227569132 -1.004162441791062 C -1.2773149227569132 -1.0341440900132988 -1.2530099995901913 -1.0584490131800206 -1.2230283513679547 -1.0584490131800206 C -1.193046703145718 -1.0584490131800206 -1.168741779978996 -1.0341440900132988 -1.168741779978996 -1.004162441791062 Z" fill="#c84449" transform="matrix(1,0,0,1,0,0)" fill-rule="nonzero"></path><path d=" M 0.394738962894599 -0.5550269600211466 C 0.394738962894599 -0.5250453117989098 0.37043403972787736 -0.500740388632188 0.3404523915056408 -0.500740388632188 C 0.3104707432834042 -0.500740388632188 0.28616582011668257 -0.5250453117989098 0.28616582011668257 -0.5550269600211466 C 0.28616582011668257 -0.5850086082433834 0.3104707432834042 -0.6093135314101052 0.3404523915056408 -0.6093135314101052 C 0.37043403972787736 -0.6093135314101052 0.394738962894599 -0.5850086082433834 0.394738962894599 -0.5550269600211466 Z" fill="#c84449" transform="matrix(1,0,0,1,0,0)" fill-rule="nonzero"></path><path d=" M -1.6392345609738364 -1.0647984805171582 C -1.6402240883510544 -1.0647984805171582 -1.6412411025998601 -1.0647984805171582 -1.6422581168486587 -1.0647984805171582 C -1.6626219703079315 -1.066447319768649 -1.6777946550544591 -1.0842902985865415 -1.676149429518322 -1.1046544443217101 C -1.6719274633691228 -1.1958505248052589 -1.6285434812516932 -1.2807849396804265 -1.557131275536456 -1.337660654784596 C -1.5256030305696058 -1.3626064048558284 -1.4893256212764143 -1.380871364987204 -1.4505097006413834 -1.3913425149985912 C -1.4305775991022394 -1.3958435569683978 -1.4107706227881422 -1.3833342115671705 -1.4062695808183392 -1.3634021100280194 C -1.401768538848529 -1.3434700084888718 -1.4142778842497528 -1.3236630321747782 -1.4342099857889004 -1.319161990204968 C -1.4409442693282877 -1.3175677516527848 -1.5876417030006316 -1.2806803699798834 -1.6024021530441068 -1.098689793186825 C -1.6040279774027617 -1.0795480223758105 -1.6200238936478897 -1.0648293919801084 -1.6392345609738364 -1.0647984805171617 Z" fill="#c84449" transform="matrix(1,0,0,1,0,0)" fill-rule="nonzero"></path><path d=" M 1.9494788806027863 -2.0340130596290926 L 1.947224957132459 -2.0353049425937932 C 1.9334815213377858 -2.0428088585376862 1.8050903441439452 -2.1038022265944427 1.5539153115605053 -1.9421794216490866 L 1.5529257841832873 -1.9415472236025337 C 1.5408590475555606 -1.9333011621257299 0.39847717743074895 -1.1612773997957646 -0.08933233266537854 -1.00001192418107 L -0.1907314019584767 -1.0227710538570491 L -0.1503531875937263 -1.154927932458623 C -0.12966674560168912 -1.2235268285416439 -0.16822877925752877 -1.2959610846923688 -0.2366894512558666 -1.3171004748357653 L -0.6160082791888399 -1.4329851254564474 C -0.6846055838436911 -1.4536554160544206 -0.7570289205273717 -1.4150991956267198 -0.7781808215659858 -1.3466488617943142 L -0.8331545647446781 -1.1669122084715795 L -0.965311443346252 -1.1965705429164828 C -0.9154241469702171 -1.1289899617118735 -0.8938315188745314 -1.0446308174257126 -0.9051151945655818 -0.9613928695980363 L -0.058519549613723854 -0.645871070623933 C -0.036730229393505454 -0.7834797299506491 0.062225344240218305 -0.8963059810946881 0.19581647320249473 -0.9358575658915314 L 0.08089386308743585 -0.9616677383139276 C 0.441741513312369 -1.1175732739686985 0.9742171897411858 -1.4478005492431016 1.306093677310951 -1.6620332264104647 L 1.61471627151613 -1.6149482153779182 L 0.3077430143143154 -0.93558269717564 L 0.3085401335904052 -0.9353628022029241 C 0.11956959090910857 -0.9181667622992329 -0.0265075361776006 -0.762065893201715 -0.031142625510724997 -0.5723711759940215 L -0.919106012204562 -0.9022136350661718 C -0.9201780001965432 -0.8990801317049844 -0.9211125538305858 -0.8959191414722092 -0.9222944893089249 -0.8927856381110253 C -0.930041501013303 -0.8722430440427544 -0.9398784678790371 -0.8525506890250298 -0.9516504681663456 -0.8340187066530014 L -0.08031663878407258 -0.5092888056964711 L -0.02289656403393181 -0.4837260151183784 C 0.015515698341435069 -0.3015768365895788 0.1822809439551989 -0.17558528895760972 0.367994236838161 -0.18840706676244068 L 1.4114508561129178 -0.18840706676244068 C 1.4252411167090209 -0.18803574451556315 1.438145767558737 -0.19518058951589623 1.44515032230926 -0.20706525948465426 C 1.4521548770597832 -0.21894992945340874 1.4521548770597832 -0.23370048278648525 1.44515032230926 -0.24558515275523973 C 1.438145767558737 -0.2574698227239942 1.4252411167090209 -0.26461466772433084 1.4114508561129178 -0.26424334547744976 L 0.570215151120987 -0.26424334547744976 C 0.5932900324075483 -0.28175244513205655 0.6142560311672796 -0.3018790660267925 0.6326928102435723 -0.32421969928540406 L 1.0765782995399213 -0.32421969928540406 C 1.0971223830390606 -0.32477287775450137 1.1134891828672835 -0.34158630893735165 1.1134891828672835 -0.36213783864290505 C 1.1134891828672835 -0.382689368348462 1.0971223830390606 -0.3995027995313123 1.0765782995399213 -0.4000559780004096 L 0.681262112341944 -0.4000559780004096 C 0.6861272886132532 -0.41019863361687925 0.6907450830402659 -0.42053369733447354 0.6947306794207222 -0.4312535772543171 C 0.7115359082880275 -0.4762920244488811 0.7194786508418964 -0.5241538150672618 0.7181220071432577 -0.5722062547644811 C 0.8681728391495014 -0.5710792930293209 1.1209421102851245 -0.5769889704210307 1.1513975640061176 -0.5772088653937466 C 1.562133886165718 -0.5799575525526812 1.5697752364675566 -0.8341836278825454 1.5697752364675566 -0.8341836278825454 L 1.62670054752909 -1.36781375291811 C 1.62670054752909 -1.36781375291811 0.8555563650899849 -0.9680446925226605 0.6069376115643514 -0.8286312798214972 C 0.5692582669433399 -0.8660672921041055 0.5240118147837158 -0.8950163995442608 0.47423099553099135 -0.9135382261609877 C 0.47282916507993633 -0.9140604767211862 0.47148230837205674 -0.9144727797950267 0.47008047792099816 -0.914967543483634 L 1.9481595107664909 -1.677425874500507 C 1.9612982353861987 -1.6841876449114856 2.0766331485750946 -1.746335461574997 2.0805912580839596 -1.8500709149531893 C 2.0832025108849557 -1.9171113947596048 2.039086081984056 -1.979011829578809 1.9494788806027863 -2.0340130596290926 Z M -0.7280722546585991 -1.1442355394103707 L -0.6797503344045275 -1.3083871365419455 C -0.6776950629960083 -1.317350622639033 -0.6717030947445757 -1.3249072184827178 -0.663443991742362 -1.3289514045781168 C -0.6551848887401555 -1.3329955906735158 -0.645541449328757 -1.3330950923804892 -0.6372006571842235 -1.329222185206671 L -0.5675214377052242 -1.3093216901759845 L -0.6339297194650833 -1.113065427028051 Z M -0.5999559461806534 -1.10352748258655 L -0.5712871391129681 -1.1999239412503862 L -0.5278853688733918 -1.0783495082107066 Z M 0.5018278146066955 -0.5031042595888735 C 0.46920185224692545 -0.41558486154019647 0.37180661420253003 -0.3710828959411927 0.2842856225651431 -0.40370458316781566 C 0.19676463092775265 -0.43632627039443506 0.1522579078786066 -0.5337193345177376 0.1848753198942461 -0.621241919535013 C 0.2174927319098856 -0.7087645045522848 0.31488362187970864 -0.7532759849453754 0.40240780006802623 -0.7206628482185451 C 0.48985468083222017 -0.6879492016344955 0.5343271940297356 -0.5906309981624638 0.5018278146066919 -0.5031042595888735 Z M 1.9280391207630991 -1.779567089326516 L 1.559934936438573 -1.8287960763430355 C 1.585195371429183 -1.845673015498896 1.6015225731532503 -1.8566952510062222 1.6071573818290723 -1.8605159261571416 C 1.7959372159046971 -1.981842977352514 1.8900797510982095 -1.9533665783859533 1.9012669078350761 -1.9492985213907303 C 1.9445546528074793 -1.9357026828072783 1.976378462134182 -1.8987222870345946 1.983370193272453 -1.8538915901041086 C 1.9822432315372858 -1.8252502699080075 1.9523924889912543 -1.7971586871436962 1.9280666076346868 -1.779567089326516 Z" fill="#c84449" transform="matrix(1,0,0,1,0,0)" fill-rule="nonzero"></path></g></g><defs><clipPath id="SvgjsClipPath1000"><path d=" M -2.122233868541823 -2.124609788387577 h 4.244467737083646 v 1.9371097883875772 h -4.244467737083646 Z"></path></clipPath></defs></svg>